<?xml version='1.0' encoding='utf-8'?>
<svg xmlns="http://www.w3.org/2000/svg" viewBox="0 0 832.42 723.71"> <g transform="translate(-276.36 259.5)" stroke-miterlimit="0"> <path transform="matrix(1.5363 .18482 -.18482 1.5363 153.7 -863.91)" d="m654.29 578.08c0 127.81-103.61 231.43-231.43 231.43s-231.43-103.61-231.43-231.43 103.61-231.43 231.43-231.43 231.43 103.61 231.43 231.43z" fill="#4169e1" stroke="#fff" stroke-width="4.7882"/> <path transform="matrix(-.68626 -.29761 .3256 -.57363 271.71 -317.28)" d="m-802.37 206.11c68.637-113.64 216.15-150.54 330.2-82.601" fill="none" stroke="#fff" stroke-linecap="round" stroke-width="10.579"/> <path transform="matrix(-1.5767 -.70606 .76762 -1.3158 -467.84 37.374)" d="m-808.47 216.82c63.021-117.5 209.37-161.67 326.87-98.65 10.387 5.571 20.352 11.895 29.816 18.922" fill="none" stroke="#fff" stroke-linecap="round" stroke-width="4.5804"/> <path transform="matrix(.99212 -1.5283 1.2464 1.0139 1012.4 -1076.7)" d="m-810.38 220.44c61.023-118.55 206.6-165.19 325.15-104.17 12.705 6.5395 24.804 14.194 36.155 22.873" fill="none" stroke="#fff" stroke-linecap="round" stroke-width="4.3428"/> <path d="m773.04-242.39-162.45 687.48" fill="#fff" stroke="#fff" stroke-linecap="round" stroke-width="7.4093"/> <path transform="matrix(-2.0507 -1.0346 1.1004 -1.7005 -790.22 -378.06)" d="m-793.33 192.24c63.671-90.715 180.93-126.43 284.36-86.608" fill="none" stroke="#fff" stroke-linecap="round" stroke-width="3.445"/> <path transform="matrix(-.48137 1.7565 -1.4947 -.58757 747.66 1322.2)" d="m-812.31 224.28c58.901-119.62 203.62-168.85 323.25-109.94 14.077 6.9316 27.445 15.219 39.915 24.745" fill="none" stroke="#fff" stroke-linecap="round" stroke-width="4.3447"/> <path transform="matrix(-1.534 .69053 .66076 1.3071 411.82 -501.27)" d="m234.41 399.82c72.146 38.909 28.62 88.535-97.218 110.84s-286.33 8.8492-358.48-30.06c-46.869-25.277-46.35-56.381 1.3602-81.507" fill="none" stroke="#cd5c5c" stroke-linecap="round" stroke-linejoin="round" stroke-width="12.364"/> </g> </svg>